<?xml version="1.0" encoding="UTF-8" standalone="no"?>
<!DOCTYPE svg PUBLIC "-//W3C//DTD SVG 1.1//EN" "http://www.w3.org/Graphics/SVG/1.1/DTD/svg11.dtd">
<svg version="1.1" xmlns="http://www.w3.org/2000/svg" xmlns:xlink="http://www.w3.org/1999/xlink" preserveAspectRatio="xMidYMid meet" viewBox="0 0 350 320" width="350" height="320"><defs><path d="M209.03 0C213.73 0 217.55 3.81 217.55 8.52C217.55 38.95 217.55 121.72 217.55 152.15C217.55 156.85 213.73 160.67 209.03 160.67C167.22 160.67 50.33 160.67 8.52 160.67C3.82 160.67 0 156.85 0 152.15C0 121.72 0 38.95 0 8.52C0 3.81 3.82 0 8.52 0C50.33 0 167.22 0 209.03 0Z" id="a1MTNeyccl"></path><path d="M35.72 151.9L42.02 145.6L62.85 132.52L68.18 129.61L77.87 124.28L81.74 117.5L82.71 112.17L84.17 103.93L85.62 97.64L86.59 92.31L87.07 86.98L88.04 81.65L89.01 74.86L90.47 69.05" id="d5Bq2XtzTf"></path><text id="f198KJyEjA" x="82.28" y="28.77" font-size="14" font-family="Open Sans" font-weight="normal" font-style="normal" letter-spacing="0" alignment-baseline="before-edge" transform="matrix(1 0 0 1 -70.87315789473678 -22.63315789473685)" style="line-height:100%" xml:space="preserve" dominant-baseline="text-before-edge"><tspan x="82.28" dy="0em" alignment-baseline="before-edge" dominant-baseline="text-before-edge" text-anchor="start">Application #1</tspan></text><style id="opensansnormalnormal">
    </style><path d="M24.57 94.73L30.87 94.73L36.69 94.73L43.47 95.21L52.67 96.67L58 96.67L63.33 96.67L68.66 95.7L73.99 93.76L79.81 91.82L85.62 91.34L91.92 91.34L100.16 92.31L112.27 99.09L115.17 105.87L114.69 111.2L117.6 115.56L124.38 117.98L130.19 120.89L136.01 123.31" id="a1Dxa07wai"></path><path d="M30.87 74.86L37.66 72.44L45.41 70.02L59.46 68.57L66.24 68.57L72.54 68.57L77.38 65.66L82.23 61.3L88.04 58.39L93.37 55.48L97.25 51.61L101.12 47.25" id="gC6BUYyRW"></path><path d="M21.67 49.67L27 49.67L33.78 49.67L39.11 50.16L44.44 50.64L49.77 50.16L54.13 47.25L59.94 46.76L66.24 49.19L71.57 49.19L77.38 48.22L82.71 45.79L88.04 46.28L92.89 48.7L97.25 52.09L103.06 53.55L107.91 51.12L113.72 52.58L118.08 55.48" id="b21XfGtyco"></path><path d="M212.31 181.63C216.65 181.63 220.18 185.15 220.18 189.5C220.18 215.27 220.18 284.73 220.18 310.5C220.18 314.85 216.65 318.37 212.31 318.37C169.85 318.37 50.34 318.37 7.88 318.37C3.53 318.37 0 314.85 0 310.5C0 284.73 0 215.27 0 189.5C0 185.15 3.53 181.63 7.88 181.63C50.34 181.63 169.85 181.63 212.31 181.63Z" id="erMHMndnh"></path><text id="c2VARUFWXQ" x="150.7" y="101.58" font-size="14" font-family="Open Sans" font-weight="normal" font-style="normal" letter-spacing="0" alignment-baseline="before-edge" transform="matrix(1 0 0 1 -141.048596491228 85.3105737316263)" style="line-height:100%" xml:space="preserve" dominant-baseline="text-before-edge"><tspan x="150.7" dy="0em" alignment-baseline="before-edge" dominant-baseline="text-before-edge" text-anchor="start">Application #2</tspan></text><path d="M49.13 307.94L60.53 296.54L70.18 289.52L78.95 283.38L88.6 278.99L98.25 276.36L109.65 275.49L120.18 273.73L131.58 270.22L141.23 265.84" id="brgDbAACs"></path><path d="M28.95 269.35L39.48 264.08L50.88 259.7L61.41 257.06L72.81 254.43L85.97 254.43L95.62 257.06L102.64 264.96L116.67 267.59L127.2 267.59L138.6 264.96L153.51 257.94L163.16 255.31L172.81 259.7L177.2 269.35" id="c1IdcxP9GH"></path><path d="M26.32 295.66L41.23 293.03L57.02 290.4L69.3 289.52L85.09 288.64L97.37 287.77L108.78 287.77L121.93 287.77L132.46 287.77L140.35 294.78L150 303.56L160.53 300.92L171.06 293.91L179.83 288.64L169.3 290.4" id="aYZXzyNRG"></path><path d="M37.72 221.1L46.5 228.12L73.69 232.5L92.11 235.14L108.78 237.77L120.18 240.4L127.2 248.29L137.72 250.05L148.25 248.29" id="b19WtFllXK"></path><path d="M343.3 143.25C345.33 143.25 346.97 144.89 346.97 146.92C346.97 159.25 346.97 192.59 346.97 204.92C346.97 206.95 345.33 208.6 343.3 208.6C329.06 208.6 290.01 208.6 275.77 208.6C273.74 208.6 272.1 206.95 272.1 204.92C272.1 192.59 272.1 159.25 272.1 146.92C272.1 144.89 273.74 143.25 275.77 143.25C290.01 143.25 329.06 143.25 343.3 143.25Z" id="a3GwCMcnRt"></path><path d="M280.44 188.81L287.6 188.81L292.98 188.81L299.88 188.81L306.79 189.3L310.89 189.3L313.44 184.33L314.47 179.86L319.58 179.61L324.19 182.1L327 183.84L329.82 185.33L332.63 187.07L335.19 189.05" id="b7tZQQM84a"></path><path d="M278.96 185.62L284.41 183.63L290.25 180.65L294.92 175.68L299.98 171.7L304.65 176.67L308.55 182.64L312.83 185.62L317.5 183.63L321.4 176.67L325.68 170.71L329.96 174.68L333.85 181.64L338.53 184.62" id="c3JmEIuMq"></path><text id="d3ae4FRI2w" x="75.05" y="107.33" font-size="8" font-family="Open Sans" font-weight="normal" font-style="normal" letter-spacing="0" alignment-baseline="before-edge" transform="matrix(1 0 0 1 202.1719345765797 39.0736434108527)" style="line-height:100%" xml:space="preserve" dominant-baseline="text-before-edge"><tspan x="75.05" dy="0em" alignment-baseline="before-edge" dominant-baseline="text-before-edge" text-anchor="start">Service</tspan></text><path d="M272.1 149.44L217.55 149.44L272.1 149.44Z" id="c2IgFX5yqe"></path><path d="M272.1 196.39L220.18 196.39L272.1 196.39Z" id="dxALeOCS"></path></defs><g><g><g><use xlink:href="#a1MTNeyccl" opacity="1" fill="#9e9fb6" fill-opacity="1"></use><g><use xlink:href="#a1MTNeyccl" opacity="1" fill-opacity="0" stroke="#000000" stroke-width="1" stroke-opacity="1"></use></g></g><g><g><use xlink:href="#d5Bq2XtzTf" opacity="1" fill-opacity="0" stroke="#753b14" stroke-width="1" stroke-opacity="1"></use></g></g><g id="h2yw8JXXzC"><use xlink:href="#f198KJyEjA" opacity="1" fill="#000000" fill-opacity="1"></use></g><g><g><use xlink:href="#a1Dxa07wai" opacity="1" fill-opacity="0" stroke="#753b14" stroke-width="1" stroke-opacity="1"></use></g></g><g><g><use xlink:href="#gC6BUYyRW" opacity="1" fill-opacity="0" stroke="#753b14" stroke-width="1" stroke-opacity="1"></use></g></g><g><g><use xlink:href="#b21XfGtyco" opacity="1" fill-opacity="0" stroke="#753b14" stroke-width="1" stroke-opacity="1"></use></g></g><g><use xlink:href="#erMHMndnh" opacity="1" fill="#a8bd96" fill-opacity="1"></use><g><use xlink:href="#erMHMndnh" opacity="1" fill-opacity="0" stroke="#000000" stroke-width="1" stroke-opacity="1"></use></g></g><g id="a10nKsOMsj"><use xlink:href="#c2VARUFWXQ" opacity="1" fill="#000000" fill-opacity="1"></use></g><g><g><use xlink:href="#brgDbAACs" opacity="1" fill-opacity="0" stroke="#753b14" stroke-width="1" stroke-opacity="1"></use></g></g><g><g><use xlink:href="#c1IdcxP9GH" opacity="1" fill-opacity="0" stroke="#753b14" stroke-width="1" stroke-opacity="1"></use></g></g><g><g><use xlink:href="#aYZXzyNRG" opacity="1" fill-opacity="0" stroke="#753b14" stroke-width="1" stroke-opacity="1"></use></g></g><g><g><use xlink:href="#b19WtFllXK" opacity="1" fill-opacity="0" stroke="#753b14" stroke-width="1" stroke-opacity="1"></use></g></g><g><use xlink:href="#a3GwCMcnRt" opacity="1" fill="#dbb1b0" fill-opacity="1"></use><g><use xlink:href="#a3GwCMcnRt" opacity="1" fill-opacity="0" stroke="#000000" stroke-width="1" stroke-opacity="1"></use></g></g><g><g><use xlink:href="#b7tZQQM84a" opacity="1" fill-opacity="0" stroke="#753b14" stroke-width="1" stroke-opacity="1"></use></g></g><g><g><use xlink:href="#c3JmEIuMq" opacity="1" fill-opacity="0" stroke="#753b14" stroke-width="1" stroke-opacity="1"></use></g></g><g id="a2qlf5ZvGE"><use xlink:href="#d3ae4FRI2w" opacity="1" fill="#000000" fill-opacity="1"></use></g><g><g><use xlink:href="#c2IgFX5yqe" opacity="1" fill-opacity="0" stroke="#0000ff" stroke-width="1" stroke-opacity="1"></use></g></g><g><g><use xlink:href="#dxALeOCS" opacity="1" fill-opacity="0" stroke="#0000ff" stroke-width="1" stroke-opacity="1"></use></g></g></g></g></svg>