<?xml version="1.0" encoding="UTF-8" standalone="no"?>
<!DOCTYPE svg PUBLIC "-//W3C//DTD SVG 1.1//EN" "http://www.w3.org/Graphics/SVG/1.1/DTD/svg11.dtd">
<svg version="1.1" xmlns="http://www.w3.org/2000/svg" xmlns:xlink="http://www.w3.org/1999/xlink" preserveAspectRatio="xMidYMid meet" viewBox="0 0 335 235" width="335" height="235"><defs><path d="M207.55 0C213.07 0 217.55 4.48 217.55 10C217.55 45.72 217.55 142.88 217.55 178.59C217.55 184.12 213.07 188.59 207.55 188.59C166.04 188.59 51.51 188.59 10 188.59C4.48 188.59 0 184.12 0 178.59C0 142.88 0 45.72 0 10C0 4.48 4.48 0 10 0C51.51 0 166.04 0 207.55 0Z" id="d2TJN5lGQj"></path><path d="M35.72 151.9L42.02 145.6L62.85 132.52L68.18 129.61L77.87 124.28L81.74 117.5L82.71 112.17L84.17 103.93L85.62 97.64L86.59 92.31L87.07 86.98L88.04 81.65L89.01 74.86L90.47 69.05" id="b8TUXhpdJ"></path><text id="b2QJW7zk6C" x="82.28" y="28.77" font-size="14" font-family="Open Sans" font-weight="normal" font-style="normal" letter-spacing="0" alignment-baseline="before-edge" transform="matrix(1 0 0 1 -70.87315789473678 -22.63315789473685)" style="line-height:100%" xml:space="preserve" dominant-baseline="text-before-edge"><tspan x="82.28" dy="0em" alignment-baseline="before-edge" dominant-baseline="text-before-edge" text-anchor="start">Application #1</tspan></text><style id="opensansnormalnormal">
    </style><path d="M24.57 94.73L30.87 94.73L36.69 94.73L43.47 95.21L52.67 96.67L58 96.67L63.33 96.67L68.66 95.7L73.99 93.76L79.81 91.82L85.62 91.34L91.92 91.34L100.16 92.31L112.27 99.09L115.17 105.87L114.69 111.2L117.6 115.56L124.38 117.98L130.19 120.89L136.01 123.31" id="c2uRCrKN5U"></path><path d="M30.87 74.86L37.66 72.44L45.41 70.02L59.46 68.57L66.24 68.57L72.54 68.57L77.38 65.66L82.23 61.3L88.04 58.39L93.37 55.48L97.25 51.61L101.12 47.25" id="a7F6KEqXT"></path><path d="M21.67 49.67L27 49.67L33.78 49.67L39.11 50.16L44.44 50.64L49.77 50.16L54.13 47.25L59.94 46.76L66.24 49.19L71.57 49.19L77.38 48.22L82.71 45.79L88.04 46.28L92.89 48.7L97.25 52.09L103.06 53.55L107.91 51.12L113.72 52.58L118.08 55.48" id="bxVrk61LP"></path><path d="M318.95 57.02C324.47 57.02 328.95 61.49 328.95 67.02C328.95 99.75 328.95 187.96 328.95 220.7C328.95 226.22 324.47 230.7 318.95 230.7C276.92 230.7 160.81 230.7 118.78 230.7C113.25 230.7 108.78 226.22 108.78 220.7C108.78 187.96 108.78 99.75 108.78 67.02C108.78 61.49 113.25 57.02 118.78 57.02C160.81 57.02 276.92 57.02 318.95 57.02Z" id="aZP13KLRT"></path><text id="gd51VuSz" x="150.7" y="101.58" font-size="14" font-family="Open Sans" font-weight="normal" font-style="normal" letter-spacing="0" alignment-baseline="before-edge" transform="matrix(1 0 0 1 -32.27666666666664 -39.29982456140354)" style="line-height:100%" xml:space="preserve" dominant-baseline="text-before-edge"><tspan x="150.7" dy="0em" alignment-baseline="before-edge" dominant-baseline="text-before-edge" text-anchor="start">Application #2</tspan></text><path d="M157.9 183.33L169.3 171.93L178.95 164.91L187.72 158.77L197.37 154.38L207.02 151.75L218.43 150.88L228.95 149.12L240.35 145.61L250 141.23" id="cijj4slUo"></path><path d="M137.72 144.74L148.25 139.47L159.65 135.09L170.18 132.45L181.58 129.82L194.74 129.82L204.39 132.45L211.41 140.35L225.44 142.98L235.97 142.98L247.37 140.35L262.28 133.33L271.93 130.7L281.58 135.09L285.97 144.74" id="bjkbkPirl"></path><path d="M135.09 171.05L150 168.42L165.79 165.79L178.07 164.91L193.86 164.03L206.14 163.16L217.55 163.16L230.71 163.16L241.23 163.16L249.13 170.17L258.78 178.95L269.3 176.31L279.83 169.3L288.6 164.03L278.07 165.79" id="f3sJTh3caT"></path><path d="M146.5 96.49L155.27 103.51L182.46 107.89L200.88 110.52L217.55 113.16L228.95 115.79L235.97 123.68L246.5 125.44L257.02 123.68" id="c2U5JEpuq2"></path><path d="M325.28 2.43C327.31 2.43 328.95 4.07 328.95 6.1C328.95 13.55 328.95 32.24 328.95 39.69C328.95 41.72 327.31 43.37 325.28 43.37C311.04 43.37 271.99 43.37 257.75 43.37C255.73 43.37 254.08 41.72 254.08 39.69C254.08 32.24 254.08 13.55 254.08 6.1C254.08 4.07 255.73 2.43 257.75 2.43C271.99 2.43 311.04 2.43 325.28 2.43Z" id="b8nvR3EWJ"></path><path d="M262.42 35.78L269.59 35.78L274.96 35.78L281.87 35.78L288.77 36.28L292.87 36.28L295.43 31.31L296.45 26.84L301.57 26.59L306.17 29.07L308.98 30.81L311.8 32.3L314.61 34.04L317.17 36.03" id="aDW0KpNdA"></path><path d="M260.94 32.59L266.39 30.61L272.23 27.62L276.9 22.65L281.96 18.68L286.64 23.65L290.53 29.61L294.81 32.59L299.48 30.61L303.38 23.65L307.66 17.68L311.94 21.66L315.84 28.62L320.51 31.6" id="a54P945vY0"></path><text id="a22wjxQy0" x="75.05" y="107.33" font-size="8" font-family="Open Sans" font-weight="normal" font-style="normal" letter-spacing="0" alignment-baseline="before-edge" transform="matrix(1 0 0 1 187.44030153508754 -103.84114583333329)" style="line-height:100%" xml:space="preserve" dominant-baseline="text-before-edge"><tspan x="75.05" dy="0em" alignment-baseline="before-edge" dominant-baseline="text-before-edge" text-anchor="start">Repository</tspan></text><path d="M258.65 36.28L165.31 38.89" id="b4DRWZF00"></path><path d="M263.2 40.19L246.28 80.55" id="b7F3wMn9l"></path></defs><g><g><g><use xlink:href="#d2TJN5lGQj" opacity="1" fill="#9e9fb6" fill-opacity="1"></use><g><use xlink:href="#d2TJN5lGQj" opacity="1" fill-opacity="0" stroke="#000000" stroke-width="1" stroke-opacity="1"></use></g></g><g><g><use xlink:href="#b8TUXhpdJ" opacity="1" fill-opacity="0" stroke="#753b14" stroke-width="1" stroke-opacity="1"></use></g></g><g id="dCwide7CU"><use xlink:href="#b2QJW7zk6C" opacity="1" fill="#000000" fill-opacity="1"></use></g><g><g><use xlink:href="#c2uRCrKN5U" opacity="1" fill-opacity="0" stroke="#753b14" stroke-width="1" stroke-opacity="1"></use></g></g><g><g><use xlink:href="#a7F6KEqXT" opacity="1" fill-opacity="0" stroke="#753b14" stroke-width="1" stroke-opacity="1"></use></g></g><g><g><use xlink:href="#bxVrk61LP" opacity="1" fill-opacity="0" stroke="#753b14" stroke-width="1" stroke-opacity="1"></use></g></g><g><use xlink:href="#aZP13KLRT" opacity="1" fill="#a8bd96" fill-opacity="1"></use><g><use xlink:href="#aZP13KLRT" opacity="1" fill-opacity="0" stroke="#000000" stroke-width="1" stroke-opacity="1"></use></g></g><g id="c157fHV4fS"><use xlink:href="#gd51VuSz" opacity="1" fill="#000000" fill-opacity="1"></use></g><g><g><use xlink:href="#cijj4slUo" opacity="1" fill-opacity="0" stroke="#753b14" stroke-width="1" stroke-opacity="1"></use></g></g><g><g><use xlink:href="#bjkbkPirl" opacity="1" fill-opacity="0" stroke="#753b14" stroke-width="1" stroke-opacity="1"></use></g></g><g><g><use xlink:href="#f3sJTh3caT" opacity="1" fill-opacity="0" stroke="#753b14" stroke-width="1" stroke-opacity="1"></use></g></g><g><g><use xlink:href="#c2U5JEpuq2" opacity="1" fill-opacity="0" stroke="#753b14" stroke-width="1" stroke-opacity="1"></use></g></g><g><use xlink:href="#b8nvR3EWJ" opacity="1" fill="#dbb1b0" fill-opacity="1"></use><g><use xlink:href="#b8nvR3EWJ" opacity="1" fill-opacity="0" stroke="#000000" stroke-width="1" stroke-opacity="1"></use></g></g><g><g><use xlink:href="#aDW0KpNdA" opacity="1" fill-opacity="0" stroke="#753b14" stroke-width="1" stroke-opacity="1"></use></g></g><g><g><use xlink:href="#a54P945vY0" opacity="1" fill-opacity="0" stroke="#753b14" stroke-width="1" stroke-opacity="1"></use></g></g><g id="g3nJ6Ct7i9"><use xlink:href="#a22wjxQy0" opacity="1" fill="#000000" fill-opacity="1"></use></g><g><g><use xlink:href="#b4DRWZF00" opacity="1" fill-opacity="0" stroke="#0006ff" stroke-width="1" stroke-opacity="1"></use></g></g><g><g><use xlink:href="#b7F3wMn9l" opacity="1" fill-opacity="0" stroke="#0006ff" stroke-width="1" stroke-opacity="1"></use></g></g></g></g></svg>